{"accessors" : [{"bufferView" : 0, "byteOffset" : 0, "componentType" : 5123, "count" : 5760, "type" : "SCALAR", "max" : [3837], "min" : [0]}, {"bufferView" : 1, "byteOffset" : 0, "componentType" : 5126, "count" : 3838, "type" : "VEC3", "max" : [1.1681159734725952, 6.113584041595459, 0.4456869959831238], "min" : [-1.1681159734725952, -0.01070099975913763, -0.5820090174674988], "name" : "POSITION"}, {"bufferView" : 1, "byteOffset" : 12, "componentType" : 5126, "count" : 3838, "type" : "VEC3", "max" : [1.0000044107437134, 0.9694788455963135, 0.9991973042488098], "min" : [-0.9995929598808289, -0.9830116033554077, -0.9981260299682617], "name" : "NORMAL"}, {"bufferView" : 1, "byteOffset" : 24, "componentType" : 5126, "count" : 3838, "type" : "VEC2", "max" : [0.875, 1], "min" : [0, 0], "name" : "TEXCOORD_0"}, {"bufferView" : 2, "byteOffset" : 0, "componentType" : 5126, "normalized" : false, "count" : 36, "type" : "SCALAR", "max" : [1.4583333333333335], "min" : [0]}, {"bufferView" : 2, "byteOffset" : 144, "componentType" : 5126, "normalized" : false, "count" : 36, "type" : "VEC3", "max" : [0.15881769359111786, 3.0034871101379395, 0.10343875735998154], "min" : [0.017069535329937935, 2.848512649536133, -0.03321082144975662]}], "animations" : [{"channels" : [{"sampler" : 0, "target" : {"node" : -1, "path" : "translation"}}], "samplers" : [{"input" : 4, "interpolation" : "CUBICSPLINE", "output" : 5}], "name" : "mixamo.com"}], "asset" : {"generator" : "Aspose.3D 24.9.1", "version" : "2.0"}, "buffers" : [{"uri" : "data:application/octet-stream;base64,", "byteLength" : 134924}], "bufferViews" : [{"buffer" : 0, "byteOffset" : 0, "byteLength" : 11520, "target" : 34963}, {"buffer" : 0, "byteOffset" : 11524, "byteLength" : 122816, "byteStride" : 32, "target" : 34962}, {"buffer" : 0, "byteOffset" : 134344, "byteLength" : 576}], "meshes" : [{"primitives" : [{"attributes" : {"POSITION" : 1, "NORMAL" : 2, "TEXCOORD_0" : 3}, "indices" : 0, "mode" : 4}], "name" : "bodymesh"}], "nodes" : [{"mesh" : 0, "name" : "body"}], "scene" : 0, "scenes" : [{"nodes" : [0]}]}